<svg width="60" height="60" viewBox="0 0 60 60" fill="none" xmlns="http://www.w3.org/2000/svg">
<rect width="60" height="60" fill="#D8D9DA"/>
<g clip-path="url(#clip0_271_4775)">
<path d="M32.1214 32.1214C30.3929 33.905 30.2671 36.1286 30.1179 41C34.6593 41 37.7943 40.9843 39.4129 39.4129C40.9843 37.7943 41 34.51 41 30.1179C36.1286 30.275 33.905 30.3929 32.1214 32.1214ZM19 30.1179C19 34.51 19.0157 37.7943 20.5871 39.4129C22.2057 40.9843 25.3407 41 29.8821 41C29.725 36.1286 29.6071 33.905 27.8786 32.1214C26.095 30.3929 23.8714 30.2671 19 30.1179ZM29.8821 19C25.3486 19 22.2057 19.0157 20.5871 20.5871C19.0157 22.2057 19 25.49 19 29.8821C23.8714 29.725 26.095 29.6071 27.8786 27.8786C29.6071 26.095 29.7329 23.8714 29.8821 19ZM32.1214 27.8786C30.3929 26.095 30.2671 23.8714 30.1179 19C34.6593 19 37.7943 19.0157 39.4129 20.5871C40.9843 22.2057 41 25.49 41 29.8821C36.1286 29.725 33.905 29.6071 32.1214 27.8786Z" fill="#1B1B1B"/>
</g>
<defs>
<clipPath id="clip0_271_4775">
<rect width="22" height="22" fill="white" transform="translate(19 19)"/>
</clipPath>
</defs>
</svg>
