<svg width="60" height="60" viewBox="0 0 60 60" fill="none" xmlns="http://www.w3.org/2000/svg">
<rect width="60" height="60" fill="#D8D9DA"/>
<path d="M21.2261 29.4036L33.1395 24.3577C34.3155 23.832 38.3036 22.1501 38.3036 22.1501C38.3036 22.1501 40.1443 21.4142 39.9909 23.2013C39.9398 23.9372 39.5307 26.5127 39.1217 29.2984L37.8435 37.5506C37.8435 37.5506 37.7412 38.7595 36.872 38.9697C36.0028 39.18 34.5711 38.2339 34.3155 38.0236C34.111 37.8659 30.4807 35.5007 29.1513 34.3443C28.7934 34.029 28.3844 33.3982 29.2025 32.6624C31.0431 30.9278 33.2417 28.7728 34.5711 27.4062C35.1847 26.7755 35.7982 25.3038 33.2417 27.0909L26.0324 32.0842C26.0324 32.0842 25.2143 32.6098 23.6804 32.1367C22.1465 31.6637 20.3569 31.033 20.3569 31.033C20.3569 31.033 19.1298 30.2445 21.2261 29.4036Z" fill="#1B1B1B"/>
</svg>
