<svg width="60" height="60" viewBox="0 0 60 60" fill="none" xmlns="http://www.w3.org/2000/svg">
<rect width="60" height="60" fill="#D8D9DA"/>
<path fill-rule="evenodd" clip-rule="evenodd" d="M40.2202 21.6313C41.315 21.9244 42.1755 22.7848 42.4685 23.8796C42.9981 25.862 43.0002 30.0005 43.0002 30.0005C43.0002 30.0005 43.0002 34.139 42.4685 36.1214C42.1755 37.2163 41.315 38.0766 40.2202 38.3696C38.2379 38.9014 30.2852 38.9014 30.2852 38.9014C30.2852 38.9014 22.3327 38.9014 20.3503 38.3696C19.2555 38.0766 18.3951 37.2163 18.102 36.1214C17.5703 34.139 17.5703 30.0005 17.5703 30.0005C17.5703 30.0005 17.5703 25.862 18.102 23.8796C18.3951 22.7848 19.2555 21.9244 20.3503 21.6313C22.3327 21.0996 30.2852 21.0996 30.2852 21.0996C30.2852 21.0996 38.2379 21.0996 40.2202 21.6313ZM34.3464 29.9996L27.7398 33.8137V26.1855L34.3464 29.9996Z" fill="#1B1B1B"/>
</svg>
